<svg width="28" height="26" viewBox="0 0 28 26" fill="none" xmlns="http://www.w3.org/2000/svg">
<mask id="mask0" style="mask-type:alpha" maskUnits="userSpaceOnUse" x="1" y="0" width="26" height="26">
<path d="M1.48999 0H26.3276V25.8462H1.48999V0Z" fill="white"/>
</mask>
<g mask="url(#mask0)">
<path fill-rule="evenodd" clip-rule="evenodd" d="M14.191 16.258L14.6823 12.3371L15.3199 7.06017C15.4805 6.00965 15.9983 5.04348 16.7768 4.3388C17.5933 3.60096 18.641 3.19478 19.7275 3.19478C19.7333 3.19478 19.7386 3.19526 19.7439 3.19526V3.19382C22.0178 3.19382 24.224 3.47165 26.3276 3.99391C26.0646 3.5589 25.7585 3.14455 25.4105 2.75712C23.8382 1.00504 21.5712 -6.10352e-05 19.1923 -6.10352e-05C17.1756 -6.10352e-05 15.231 0.722402 13.7165 2.03346C12.98 2.67156 12.3711 3.42166 11.9079 4.26261C11.4604 5.07496 11.1586 5.95196 11.0117 6.86934L10.3197 12.3602L9.82958 16.2609L9.31559 20.5173C9.18529 21.3645 8.76789 22.1439 8.13974 22.7121C7.48173 23.3072 6.63609 23.6352 5.75986 23.6352C5.68351 23.6352 5.6074 23.6316 5.53225 23.6266C4.15649 23.6138 2.80698 23.4992 1.48999 23.2901C1.56417 23.3817 1.64052 23.472 1.72025 23.56C3.02809 25.0129 4.9135 25.8464 6.89356 25.8464C8.57111 25.8464 10.1889 25.2474 11.4486 24.1599C12.6505 23.1226 13.4499 21.6979 13.6989 20.1489L14.191 16.258Z" fill="#387DFF"/>
</g>
<path fill-rule="evenodd" clip-rule="evenodd" d="M26.1585 4.60338C24.8675 4.28301 23.5483 4.0619 22.2154 3.93884C22.5322 4.15635 22.8241 4.41544 23.0813 4.71466C24.7088 6.60878 24.5315 9.50752 22.6851 11.1774C21.9057 11.8818 20.9059 12.2871 19.87 12.3193H19.8695L15.3776 12.3183L15.3682 12.383L14.8862 16.2284L19.454 16.2298C20.3982 16.2017 21.3214 16.0282 22.1983 15.6941C23.1061 15.3476 23.9397 14.8493 24.677 14.211C26.3369 12.7735 27.3276 10.7871 27.4668 8.61803C27.553 7.26707 27.3004 5.94713 26.7459 4.74903L26.1585 4.60338Z" fill="#454342"/>
<path fill-rule="evenodd" clip-rule="evenodd" d="M1.60454 22.6092C2.2563 22.7126 2.91624 22.7914 3.57955 22.8464C3.39241 22.7005 3.21682 22.5361 3.05882 22.3525C1.74592 20.8249 1.88947 18.4867 3.37844 17.1398C4.00731 16.5721 4.81802 16.2681 5.65379 16.2421H9.13871L9.14859 16.1549L9.63126 12.3214L6.68031 12.3198C5.0808 12.3671 3.5374 12.9651 2.33481 14.0031C0.953995 15.1952 0.12955 16.8425 0.0139395 18.6417C-0.0744541 20.0145 0.25937 21.3503 0.963388 22.5071L1.60454 22.6092Z" fill="#454342"/>
</svg>
