<?xml version="1.0" standalone="no"?>
<!DOCTYPE svg PUBLIC "-//W3C//DTD SVG 20010904//EN"
 "http://www.w3.org/TR/2001/REC-SVG-20010904/DTD/svg10.dtd">
<svg version="1.0" xmlns="http://www.w3.org/2000/svg"
 width="896.000000pt" height="896.000000pt" viewBox="0 0 896.000000 896.000000"
 preserveAspectRatio="xMidYMid meet">
<metadata>
Created by potrace 1.14, written by Peter Selinger 2001-2017
</metadata>
<g transform="translate(0.000000,896.000000) scale(0.100000,-0.100000)"
fill="#000000" stroke="none">
<path d="M5938 8635 c-1 -1 -32 -6 -68 -9 -216 -22 -509 -90 -660 -153 -8 -3
-19 -7 -25 -8 -15 -2 -105 -42 -235 -104 -103 -50 -230 -123 -230 -134 0 -4
-4 -6 -9 -3 -4 3 -19 -4 -32 -15 -13 -11 -39 -30 -59 -42 -19 -12 -39 -25 -45
-29 -5 -5 -48 -38 -96 -76 -147 -116 -315 -282 -409 -402 -19 -25 -37 -47 -40
-50 -16 -14 -110 -151 -110 -160 0 -5 -4 -10 -9 -10 -5 0 -14 -13 -21 -29 -6
-16 -19 -37 -28 -48 -9 -10 -37 -59 -62 -108 -25 -50 -48 -91 -52 -93 -5 -2
-8 -10 -8 -17 0 -7 -6 -26 -14 -42 -30 -58 -66 -144 -66 -157 0 -7 -3 -16 -7
-20 -5 -4 -8 -11 -8 -14 -1 -4 -12 -38 -25 -77 -13 -38 -25 -74 -26 -80 -2 -5
-5 -19 -8 -30 -2 -11 -9 -32 -15 -47 -6 -16 -9 -28 -7 -28 2 0 -2 -23 -9 -52
-8 -28 -14 -54 -13 -57 0 -3 -1 -8 -2 -11 -5 -14 -21 -108 -25 -155 -5 -49
-16 -138 -21 -165 -3 -14 -7 -50 -9 -80 -3 -30 -7 -66 -9 -80 -6 -31 -25 -171
-31 -231 -7 -62 -13 -117 -19 -153 -2 -17 -8 -58 -12 -90 -8 -67 -12 -103 -18
-143 -2 -16 -6 -53 -10 -83 -3 -30 -8 -65 -10 -78 -3 -12 -8 -53 -11 -90 -5
-62 -12 -107 -15 -107 0 0 -3 -22 -5 -50 -3 -27 -8 -68 -11 -90 -3 -22 -7 -56
-9 -75 -2 -19 -6 -55 -10 -80 -3 -25 -8 -56 -10 -70 -2 -14 -6 -50 -10 -80 -3
-30 -9 -73 -12 -95 -9 -68 -10 -78 -18 -145 -4 -36 -9 -73 -11 -83 -2 -10 -6
-48 -10 -85 -8 -81 -12 -107 -14 -107 -1 0 -3 -16 -5 -35 -1 -19 -3 -35 -4
-35 -1 0 -4 -26 -6 -57 -3 -32 -7 -72 -10 -90 -8 -45 -17 -117 -19 -151 0 -15
-3 -27 -6 -27 -3 0 -5 -15 -6 -33 0 -17 -4 -57 -8 -87 -7 -53 -14 -112 -21
-175 -2 -16 -4 -30 -5 -30 -1 0 -3 -18 -5 -40 -11 -106 -24 -213 -30 -247 -2
-10 -7 -50 -10 -88 -3 -38 -8 -79 -10 -91 -2 -12 -7 -47 -10 -78 -7 -65 -13
-112 -20 -161 -2 -19 -7 -57 -10 -85 -3 -27 -7 -59 -9 -70 -2 -11 -7 -49 -10
-85 -4 -36 -8 -76 -10 -90 -4 -25 -15 -114 -21 -179 -4 -35 -12 -91 -22 -146
-3 -16 -7 -39 -8 -50 -16 -100 -130 -351 -194 -424 -12 -13 -21 -27 -21 -31 0
-15 -187 -198 -235 -230 -27 -19 -52 -36 -55 -39 -19 -22 -175 -96 -262 -125
-78 -26 -115 -36 -163 -41 -16 -2 -30 -4 -30 -5 0 -2 -51 -7 -140 -13 -22 -2
-50 1 -62 5 -13 4 -23 3 -23 -2 0 -5 -12 -5 -29 0 -15 4 -34 4 -42 0 -7 -5
-17 -6 -22 -3 -5 3 -70 7 -145 9 -75 2 -168 5 -207 8 -102 7 -235 18 -275 22
-19 2 -60 6 -91 8 -56 5 -118 12 -194 22 -22 2 -58 7 -80 10 -135 17 -189 25
-197 30 -11 7 -10 -1 3 -30 7 -14 16 -23 20 -20 5 3 9 0 9 -6 0 -19 208 -220
295 -285 22 -16 49 -37 59 -47 11 -10 28 -20 38 -24 10 -3 18 -9 18 -13 0 -5
14 -14 30 -21 17 -7 30 -16 30 -21 0 -5 4 -9 9 -9 5 0 38 -17 72 -38 144 -87
396 -192 548 -227 9 -3 43 -11 76 -19 33 -8 76 -17 95 -20 19 -3 44 -7 55 -10
98 -20 501 -28 610 -13 46 7 123 19 135 22 16 3 78 16 98 20 12 2 57 14 100
25 42 12 84 23 92 25 23 6 103 34 125 45 25 11 94 39 100 40 12 2 222 114 254
136 20 13 39 24 44 24 4 0 20 11 35 25 15 14 30 25 34 25 4 0 16 6 25 14 10 8
54 43 98 78 144 114 313 294 416 443 19 28 37 52 40 55 3 3 9 12 12 20 4 8 18
33 32 55 23 37 97 174 100 185 1 3 12 28 24 55 25 54 91 230 96 255 2 8 8 35
15 60 7 25 14 56 17 70 2 14 8 41 13 60 8 33 18 96 25 166 2 18 7 54 10 80 4
27 8 63 10 79 2 17 6 48 9 70 3 22 7 60 11 85 3 25 7 61 10 80 3 19 7 51 9 70
3 19 7 55 11 80 3 25 8 61 10 80 9 79 16 139 26 205 10 73 15 115 24 200 5 49
9 80 20 148 3 17 8 57 10 87 2 30 7 66 10 80 2 14 7 50 10 80 3 30 8 66 10 80
2 14 7 48 10 75 3 28 8 66 11 85 2 19 6 53 9 75 2 22 6 56 9 75 3 19 8 55 11
80 2 25 7 63 10 85 15 113 27 214 30 250 1 23 5 50 8 60 3 11 8 47 12 80 3 33
8 78 11 100 3 22 7 54 8 70 2 17 7 50 10 75 3 25 8 65 11 90 2 25 7 65 10 90
4 25 8 61 11 80 2 19 6 55 9 80 7 69 13 120 20 175 13 101 15 121 20 160 3 22
7 58 9 80 3 22 6 40 6 40 1 0 3 18 5 40 4 49 10 95 23 200 15 111 23 174 27
215 2 19 7 60 10 90 4 30 8 69 10 85 7 60 17 112 36 190 11 44 22 87 24 95 6
26 24 71 74 184 31 69 106 190 164 266 45 59 185 204 233 240 10 8 38 30 60
48 23 17 47 32 53 32 6 0 11 4 11 9 0 5 10 13 23 17 12 4 24 9 27 13 12 15
254 130 275 130 3 0 30 8 60 16 30 9 69 18 85 20 17 2 34 6 38 9 49 30 731 24
1012 -9 25 -3 83 -8 130 -11 47 -3 92 -7 100 -10 8 -3 38 -8 65 -10 87 -8 129
-13 155 -18 14 -3 44 -8 65 -10 22 -3 51 -7 65 -10 22 -4 52 -9 140 -21 14 -2
34 -6 45 -8 11 -3 40 -8 65 -12 25 -4 54 -9 65 -12 27 -6 61 -12 88 -17 12 -2
54 -12 92 -21 39 -9 84 -18 100 -21 17 -2 62 -12 101 -23 70 -18 71 -18 67 0
-3 11 -8 19 -12 19 -3 0 -12 12 -18 28 -13 26 -152 216 -209 283 -123 145
-356 353 -512 457 -171 115 -427 253 -514 277 -5 2 -10 4 -13 5 -3 1 -8 3 -12
5 -5 1 -21 7 -38 14 -30 13 -138 49 -165 56 -8 2 -46 13 -85 23 -67 19 -168
42 -210 48 -11 2 -36 6 -55 9 -19 3 -51 8 -70 10 -19 2 -35 4 -35 5 0 8 -518
23 -527 15z"/>
<path d="M7123 7373 c9 -2 17 -9 17 -13 0 -5 12 -16 28 -24 40 -21 262 -241
262 -261 0 -3 8 -14 18 -24 32 -36 42 -50 42 -60 0 -5 3 -11 8 -13 33 -14 161
-302 197 -443 120 -463 -2 -994 -305 -1336 -88 -99 -256 -249 -279 -249 -6 0
-11 -4 -11 -8 0 -21 -284 -161 -362 -178 -5 -1 -9 -2 -10 -4 -2 -1 -10 -3 -18
-5 -8 -2 -26 -7 -40 -10 -178 -46 -211 -48 -1022 -47 -664 1 -719 -1 -727 -16
-5 -9 -9 -19 -9 -22 1 -8 -14 -143 -18 -163 -2 -10 -6 -45 -9 -78 -4 -33 -8
-68 -10 -77 -1 -9 -6 -46 -9 -82 -4 -36 -9 -76 -11 -90 -2 -14 -7 -43 -9 -65
-3 -22 -10 -76 -15 -120 -6 -44 -13 -105 -16 -135 -3 -30 -8 -62 -10 -70 -2
-8 -7 -44 -10 -80 -4 -36 -9 -73 -11 -83 -2 -10 -6 -46 -9 -80 -4 -34 -7 -66
-8 -71 -1 -5 9 -12 23 -15 14 -3 351 -6 750 -5 646 1 846 5 930 19 14 2 48 6
75 10 28 3 82 12 120 20 39 8 85 17 104 20 19 3 38 8 43 11 5 3 20 8 35 10 34
6 239 72 278 89 17 8 50 22 75 33 25 11 48 21 52 21 16 2 215 108 271 144 31
20 61 37 65 37 5 0 17 8 28 18 10 9 39 30 64 46 128 83 430 358 510 465 14 18
30 38 35 44 92 108 216 298 293 452 60 121 145 328 158 388 1 4 2 8 4 10 1 1
3 9 5 17 2 8 6 24 9 35 35 135 47 184 52 210 2 16 7 37 9 45 2 8 7 42 11 75 3
33 8 63 10 66 6 10 17 222 17 314 0 107 -10 280 -18 315 -3 14 -7 46 -10 71
-2 25 -9 67 -15 93 -6 26 -8 51 -5 56 3 4 1 10 -4 12 -5 1 -12 17 -15 33 -12
71 -19 97 -60 220 -43 129 -73 206 -100 254 -13 24 -62 39 -271 86 -35 8 -69
16 -90 20 -11 3 -31 8 -45 11 -14 3 -38 8 -55 11 -16 2 -37 7 -45 10 -17 7
-22 8 -105 22 -33 6 -71 13 -85 16 -13 2 -40 7 -60 10 -20 3 -47 8 -60 10 -14
3 -41 8 -60 10 -19 3 -51 8 -70 11 -90 15 -184 28 -370 49 -69 8 -145 13 -127
8z"/>
<path d="M2037 4693 c-2 -1 -30 -5 -63 -7 -32 -3 -70 -7 -84 -10 -13 -3 -39
-7 -58 -8 -18 -1 -36 -6 -38 -10 -3 -5 -9 -6 -13 -3 -5 2 -23 0 -42 -5 -19 -6
-47 -13 -64 -16 -153 -26 -516 -180 -662 -280 -35 -24 -66 -44 -69 -44 -3 0
-46 -32 -133 -99 -74 -57 -208 -185 -294 -282 -48 -54 -176 -229 -211 -289
-62 -107 -160 -312 -181 -380 -1 -3 -13 -43 -28 -90 -43 -139 -68 -256 -84
-400 -15 -125 -6 -531 12 -559 2 -4 6 -27 10 -51 3 -25 18 -90 32 -145 14 -55
26 -106 26 -112 0 -7 4 -13 8 -13 4 0 10 -15 13 -33 9 -44 91 -234 145 -334
46 -86 54 -91 131 -98 14 -1 39 -5 55 -9 17 -3 46 -8 65 -10 19 -3 64 -9 100
-15 36 -6 85 -13 110 -16 25 -3 61 -8 80 -10 19 -3 60 -7 90 -10 30 -3 75 -8
100 -10 25 -3 69 -8 99 -11 l53 -6 -54 49 c-57 51 -187 202 -187 217 1 5 -3
12 -8 15 -18 13 -99 158 -109 196 -2 6 -14 39 -28 75 -25 69 -29 83 -51 220
-13 82 -13 295 -1 350 4 14 9 39 12 55 7 43 23 101 44 168 23 69 119 257 132
257 5 0 6 5 3 10 -3 6 -2 10 4 10 6 0 18 14 27 31 25 49 202 220 279 270 70
45 216 119 235 119 6 0 18 4 28 10 18 10 121 39 162 44 105 15 223 18 722 20
311 0 568 3 571 6 2 3 7 34 11 70 3 36 8 76 10 90 3 14 7 44 10 68 3 24 9 48
12 54 5 7 2 8 -6 3 -9 -5 -11 -4 -6 4 8 13 12 33 21 112 3 31 7 66 9 76 3 11
7 44 11 74 8 58 10 74 19 159 4 30 8 66 11 80 2 14 7 50 10 80 4 30 9 66 10
80 2 14 6 48 9 75 3 28 8 66 11 85 2 19 7 58 10 86 l7 51 -521 0 c-287 0 -523
-2 -524 -4z"/>
</g>
</svg>
